<svg width="32" height="33" viewBox="0 0 32 33" fill="none" xmlns="http://www.w3.org/2000/svg">
<g clip-path="url(#clip0_89809_7)">
<path d="M15.6592 30.5781C23.3912 30.5781 29.6592 24.3101 29.6592 16.5781C29.6592 8.84614 23.3912 2.57812 15.6592 2.57812C7.92719 2.57812 1.65918 8.84614 1.65918 16.5781C1.65918 24.3101 7.92719 30.5781 15.6592 30.5781Z" fill="white"/>
<path d="M16.1863 0.578125C7.61062 0.578125 0.65918 7.74146 0.65918 16.5781C0.65918 25.4147 7.61062 32.5781 16.1863 32.5781C24.7621 32.5781 31.7135 25.4147 31.7135 16.5781C31.7135 7.74146 24.7621 0.578125 16.1863 0.578125ZM20.9963 16.7261C20.9963 14.0708 18.9072 11.9178 16.3299 11.9178C13.7531 11.9178 11.664 14.0704 11.664 16.7261C11.664 19.3814 13.7531 21.534 16.3299 21.534V24.2817C12.2806 24.2817 8.9975 20.8991 8.9975 16.7261C8.9975 12.5532 12.2802 9.17052 16.3299 9.17052C20.3797 9.17052 23.6625 12.5532 23.6625 16.7261H20.9963ZM25.4955 16.7261C25.4955 11.5102 21.3922 7.28172 16.3299 7.28172C11.2682 7.28172 7.16483 11.5102 7.16483 16.7261C7.16483 21.9419 11.2682 26.1701 16.3299 26.1701V29.3185C9.58097 29.3185 4.10941 23.6805 4.10941 16.7261C4.10941 9.7714 9.58097 4.13372 16.3299 4.13372C23.0793 4.13372 28.5506 9.7714 28.5506 16.7261H25.4955Z" fill="#F43E37"/>
</g>
<defs>
<clipPath id="clip0_89809_7">
<rect width="32" height="32" fill="white" transform="translate(0 0.578125)"/>
</clipPath>
</defs>
</svg>
