<svg width="32" height="33" viewBox="0 0 32 33" fill="none" xmlns="http://www.w3.org/2000/svg">
<g clip-path="url(#clip0_89809_14)">
<path d="M31.6593 16.5781C31.6593 25.467 24.5267 32.5781 15.8923 32.5781C7.25806 32.5781 0.000244141 25.467 0.000244141 16.5781C0.000244141 7.68925 7.13292 0.578125 15.7672 0.578125C24.4015 0.578125 31.6593 7.68925 31.6593 16.5781Z" fill="url(#paint0_linear_89809_14)"/>
<path d="M4.67003 17.6471C4.67614 17.5942 4.71365 17.557 4.76091 17.557C4.80646 17.557 4.8442 17.5942 4.85127 17.6468L5.0476 18.9238L4.85127 20.1791C4.84397 20.2317 4.80669 20.2683 4.76091 20.2683C4.71362 20.2683 4.67614 20.2314 4.67003 20.1786L4.50439 18.9238L4.67003 17.6471Z" fill="white"/>
<path d="M5.59841 16.7669C5.64615 16.7669 5.68488 16.8048 5.69268 16.8596L5.94575 18.9239L5.69243 20.943C5.68465 20.9977 5.6459 21.0357 5.59841 21.0357C5.55019 21.0357 5.51048 20.9966 5.50414 20.9425L5.28149 18.9239L5.50414 16.8596C5.51071 16.806 5.55042 16.7669 5.59841 16.7669Z" fill="white"/>
<path d="M9.03029 15.1279C9.03466 15.0315 9.11025 14.9555 9.2016 14.9555C9.29241 14.9555 9.36766 15.0315 9.37308 15.1279L9.57352 18.9257L9.37308 21.3803V21.3796C9.36774 21.4758 9.29241 21.5517 9.2016 21.5517C9.11025 21.5517 9.03492 21.476 9.03029 21.3801L8.85303 18.9257L9.03029 15.1279Z" fill="white"/>
<path d="M7.25224 16.4083C7.25786 16.3324 7.3151 16.2756 7.38525 16.2756C7.45467 16.2756 7.51191 16.3324 7.51802 16.4078L7.74504 18.9247L7.51802 21.3593C7.51191 21.4347 7.45467 21.4916 7.38525 21.4916C7.31508 21.4916 7.25759 21.4347 7.25224 21.3593L7.05249 18.9247L7.25224 16.4083Z" fill="white"/>
<path d="M11.2565 21.34C11.2519 21.4587 11.1598 21.5514 11.0466 21.5514C10.9325 21.5514 10.8402 21.4584 10.8366 21.3408L10.6824 18.9266L10.8366 13.8709C10.8403 13.7522 10.9326 13.6593 11.0468 13.6593C11.1601 13.6593 11.2522 13.752 11.2568 13.8706L11.4305 18.9269L11.2565 21.34Z" fill="white"/>
<path d="M15.1123 21.2725C15.1094 21.4326 14.9808 21.5629 14.8249 21.5629C14.6689 21.5629 14.5399 21.4326 14.5374 21.2739C14.5374 21.2739 14.429 18.9303 14.429 18.9266L14.5374 13.0891C14.5398 12.9287 14.6687 12.7984 14.8249 12.7984C14.9808 12.7984 15.1096 12.929 15.1123 13.0889L15.2336 18.9285L15.1123 21.2725Z" fill="white"/>
<path d="M13.1702 21.3022C13.1665 21.4431 13.0571 21.5536 12.9214 21.5536C12.7848 21.5536 12.6755 21.4431 12.6725 21.3037L12.541 18.9277L12.6723 13.8345C12.6752 13.6936 12.7846 13.5833 12.9213 13.5833C13.0569 13.5833 13.1662 13.6936 13.1699 13.8345L13.3178 18.9274L13.1702 21.3039V21.3022Z" fill="white"/>
<path d="M8.44204 21.3793C8.43592 21.4656 8.37065 21.5311 8.28998 21.5311C8.20818 21.5311 8.14317 21.4656 8.13775 21.379L7.94946 18.9244L8.13775 16.5902C8.14291 16.5034 8.20818 16.4378 8.28998 16.4378C8.37091 16.4378 8.43618 16.5029 8.44204 16.5891L8.65588 18.9244L8.44204 21.3793Z" fill="white"/>
<path d="M6.60156 21.2844C6.59474 21.3497 6.54699 21.3969 6.48806 21.3969C6.42812 21.3969 6.38037 21.3494 6.37452 21.284L6.16309 18.9242L6.37452 16.475C6.38061 16.4098 6.42834 16.3623 6.48804 16.3623C6.54698 16.3623 6.59472 16.4096 6.60179 16.475L6.84174 18.9242L6.60156 21.2844Z" fill="white"/>
<path d="M13.6007 14.0207C13.6037 13.8684 13.7218 13.7495 13.8692 13.7495C14.0163 13.7495 14.1337 13.8684 14.1371 14.0202L14.2716 18.928L14.1371 21.2892V21.2872C14.1337 21.4394 14.0163 21.5581 13.8692 21.5581C13.7216 21.5581 13.6037 21.4392 13.6007 21.2889L13.481 18.9278L13.6007 14.0207Z" fill="white"/>
<path d="M10.3115 21.3645C10.3066 21.472 10.2226 21.5564 10.1208 21.5564C10.018 21.5564 9.93416 21.472 9.93004 21.3655L9.76416 18.9265L9.92978 14.2599C9.93424 14.1524 10.018 14.0681 10.1208 14.0681C10.2226 14.0681 10.3064 14.1521 10.3115 14.2599L10.4986 18.9265L10.3115 21.3645Z" fill="white"/>
<path d="M12.2098 21.3259V21.3256C12.2054 21.4545 12.1051 21.5558 11.9806 21.5558C11.8557 21.5558 11.7548 21.4541 11.7514 21.3257L11.6084 18.9266L11.7512 13.7002C11.7545 13.5702 11.8554 13.4686 11.9806 13.4686C12.1051 13.4686 12.2059 13.5704 12.2098 13.7002L12.3706 18.9269L12.2098 21.3246V21.3256C12.2098 21.3253 12.2098 21.3251 12.2098 21.3249V21.3259Z" fill="white"/>
<path d="M23.2915 16.1339C23.6233 15.9928 23.9875 15.9145 24.3692 15.9145C25.9077 15.9145 27.1549 17.1805 27.1549 18.7421C27.1549 20.3036 25.9075 21.5695 24.369 21.5695C24.3192 21.5695 16.6534 21.5656 16.6463 21.5648C16.4799 21.5477 16.3477 21.4036 16.3455 21.2306V12.2575C16.3475 12.0926 16.4035 12.0076 16.6137 11.925C17.1547 11.7127 17.7674 11.5871 18.3958 11.5871C20.9643 11.5871 23.0698 13.5859 23.2915 16.1339Z" fill="white"/>
<path d="M15.4687 12.5601C15.4712 12.3889 15.6086 12.2495 15.7759 12.2495C15.9428 12.2495 16.0801 12.3889 16.0826 12.5597L16.2192 18.9291L16.0826 21.2409V21.2381C16.0801 21.4095 15.9428 21.5486 15.7759 21.5486C15.6086 21.5486 15.4712 21.4095 15.469 21.2406L15.343 18.9291L15.4687 12.5601Z" fill="white"/>
</g>
<defs>
<linearGradient id="paint0_linear_89809_14" x1="15.8298" y1="0.578125" x2="15.8298" y2="32.5781" gradientUnits="userSpaceOnUse">
<stop stop-color="#FF7602"/>
<stop offset="1" stop-color="#FF3502"/>
</linearGradient>
<clipPath id="clip0_89809_14">
<rect width="32" height="32" fill="white" transform="translate(0 0.578125)"/>
</clipPath>
</defs>
</svg>
