<svg width="32" height="33" viewBox="0 0 32 33" fill="none" xmlns="http://www.w3.org/2000/svg">
<g clip-path="url(#clip0_89809_11)">
<path fill-rule="evenodd" clip-rule="evenodd" d="M31.3672 28.3138C31.0561 29.1039 30.3384 30.2164 29.3205 31C28.7329 31.4526 28.0313 31.8853 27.0676 32.1708C26.0403 32.4752 24.7749 32.5781 23.2 32.5781H8.8001C7.22534 32.5781 5.95999 32.4752 4.93258 32.1708C3.96888 31.8853 3.2674 31.4526 2.67962 31C1.66187 30.2163 0.943989 29.1039 0.632929 28.3138C0.00635821 26.7219 0 24.9157 0 23.7781V9.37809C0 8.24055 0.00635821 6.43434 0.632929 4.84241C0.943989 4.0523 1.66174 2.93982 2.67962 2.15619C3.26727 1.70359 3.96888 1.27095 4.93258 0.985453C5.95986 0.681006 7.22521 0.578125 8.8001 0.578125H23.2002C24.7749 0.578125 26.0403 0.681006 27.0677 0.985453C28.0314 1.27095 28.7329 1.70372 29.3206 2.15619C30.3384 2.93995 31.0563 4.0523 31.3673 4.84241C31.9939 6.43434 32.0003 8.24055 32.0003 9.37809V23.7781C32.0001 24.9156 31.9938 26.7218 31.3672 28.3138Z" fill="url(#paint0_linear_89809_11)"/>
<path d="M18.3209 18.9714C17.8407 18.4648 16.9973 18.14 16.0016 18.14C15.0059 18.14 14.1625 18.4648 13.6823 18.9714C13.4318 19.2358 13.2993 19.5068 13.2575 19.8929C13.1767 20.6406 13.2221 21.2843 13.3097 22.3135C13.3931 23.2942 13.5516 24.6021 13.7583 25.9341C13.9055 26.882 14.025 27.3936 14.1339 27.76C14.3104 28.3537 14.97 28.873 16.0016 28.873C17.0331 28.873 17.6928 28.3536 17.8693 27.76C17.9781 27.3936 18.0977 26.882 18.2448 25.9341C18.4516 24.6021 18.61 23.2942 18.6935 22.3135C18.7811 21.2842 18.8265 20.6404 18.7456 19.8929C18.7039 19.507 18.5714 19.2358 18.3209 18.9714ZM13.3852 14.4603C13.3852 15.9066 14.5577 17.0791 16.0041 17.0791C17.4505 17.0791 18.623 15.9066 18.623 14.4603C18.623 13.0139 17.4505 11.8414 16.0041 11.8414C14.5577 11.8414 13.3852 13.0139 13.3852 14.4603ZM15.9716 4.12517C9.84669 4.1426 4.8279 9.11154 4.7521 15.2361C4.69055 20.1974 7.85762 24.4413 12.28 25.9969C12.3873 26.0346 12.4963 25.9455 12.4794 25.833C12.4214 25.4477 12.3667 25.0606 12.3165 24.68C12.2987 24.5455 12.213 24.4295 12.0887 24.3752C8.5933 22.8481 6.15251 19.3425 6.19168 15.2818C6.24305 9.9529 10.5946 5.60849 15.9236 5.56538C21.3714 5.52138 25.8174 9.94032 25.8174 15.3781C25.8174 19.3981 23.3873 22.8607 19.9191 24.3756C19.7949 24.4299 19.7097 24.5462 19.692 24.6807C19.6418 25.0611 19.5871 25.4481 19.5292 25.833C19.5122 25.9455 19.6212 26.0346 19.7285 25.997C24.1086 24.4563 27.2573 20.2784 27.2573 15.3782C27.257 9.16228 22.1914 4.10737 15.9716 4.12517ZM15.7683 9.28767C19.2404 9.15325 22.1079 11.9388 22.1079 15.3815C22.1079 17.1324 21.3661 18.7132 20.1805 19.8264C20.0799 19.9208 20.0258 20.0548 20.0336 20.1925C20.0572 20.6113 20.0486 21.0183 20.0207 21.4779C20.0132 21.6003 20.1506 21.6785 20.2519 21.6095C22.2401 20.2508 23.5478 17.9662 23.5478 15.3815C23.5478 11.1259 20.0031 7.68252 15.7112 7.84886C11.7226 8.0035 8.52259 11.292 8.47147 15.2834C8.43789 17.9084 9.7536 20.234 11.7674 21.6097C11.8685 21.6788 12.0054 21.6005 11.9979 21.4781C11.9699 21.0183 11.9614 20.6113 11.9849 20.1925C11.9927 20.0549 11.9388 19.9209 11.8384 19.8267C10.6158 18.6788 9.86501 17.0339 9.91282 15.2179C9.99701 12.0221 12.5736 9.41141 15.7683 9.28767Z" fill="white"/>
</g>
<defs>
<linearGradient id="paint0_linear_89809_11" x1="16.0001" y1="0.578125" x2="16.0001" y2="32.5781" gradientUnits="userSpaceOnUse">
<stop stop-color="#F452FF"/>
<stop offset="1" stop-color="#832BC1"/>
</linearGradient>
<clipPath id="clip0_89809_11">
<rect width="32" height="32" fill="white" transform="translate(0 0.578125)"/>
</clipPath>
</defs>
</svg>
