<svg width="32" height="33" viewBox="0 0 32 33" fill="none" xmlns="http://www.w3.org/2000/svg">
<g clip-path="url(#clip0_89809_46)">
<path d="M15.9994 0.630859C7.19005 0.630859 0.0483398 7.77238 0.0483398 16.5817C0.0483398 25.3914 7.19005 32.5324 15.9994 32.5324C24.8097 32.5324 31.9506 25.3914 31.9506 16.5817C31.9506 7.77295 24.8097 0.631621 15.9992 0.631621L15.9994 0.630859ZM23.3144 23.6365C23.0287 24.1051 22.4154 24.2537 21.9468 23.9661C18.2017 21.6785 13.487 21.1604 7.93463 22.4289C7.39958 22.5508 6.86624 22.2156 6.74434 21.6804C6.62186 21.1451 6.95577 20.6118 7.49215 20.4899C13.5683 19.1011 18.7803 19.6994 22.9849 22.2689C23.4535 22.5565 23.6021 23.168 23.3144 23.6365ZM25.2668 19.2927C24.9068 19.8785 24.1411 20.0632 23.5563 19.7032C19.2687 17.0672 12.7329 16.304 7.66148 17.8434C7.00377 18.0421 6.3091 17.6714 6.10948 17.0148C5.91139 16.3571 6.28224 15.6638 6.93882 15.4638C12.7318 13.7061 19.9335 14.5575 24.8573 17.5832C25.4421 17.9432 25.6268 18.7089 25.2668 19.2929V19.2927ZM25.4344 14.7701C20.2935 11.7165 11.8116 11.4358 6.9032 12.9255C6.11501 13.1645 5.28148 12.7196 5.04263 11.9314C4.80377 11.1428 5.24834 10.3099 6.0371 10.0703C11.6716 8.35981 21.0382 8.69029 26.9571 12.204C27.6676 12.6247 27.9 13.5404 27.479 14.2484C27.06 14.9573 26.1419 15.191 25.4352 14.7701H25.4344Z" fill="#1ED760"/>
</g>
<defs>
<clipPath id="clip0_89809_46">
<rect width="32" height="32" fill="white" transform="translate(0 0.578125)"/>
</clipPath>
</defs>
</svg>
